<svg viewBox="0 0 250 64" xmlns="http://www.w3.org/2000/svg">
  <defs>
    <linearGradient id="shieldGradient" x1="0%" y1="0%" x2="100%" y2="100%">
      <stop offset="0%" style="stop-color:#005cbf;stop-opacity:1" />
      <stop offset="100%" style="stop-color:#0094ff;stop-opacity:1" />
    </linearGradient>
    <linearGradient id="textGradient" x1="0%" y1="0%" x2="100%" y2="100%">
      <stop offset="0%" style="stop-color:#003876;stop-opacity:1" />
      <stop offset="100%" style="stop-color:#0094ff;stop-opacity:1" />
    </linearGradient>
  </defs>
  
  <!-- Shield Icon -->
  <g transform="translate(0, 2)">
    <path d="M32 0 C15 0 6 10 6 20 L6 34 C6 42 12 52 32 60 C52 52 58 42 58 34 L58 20 C58 10 49 0 32 0 Z" fill="url(#shieldGradient)"/>
    <path d="M49.5 15 L45 15 L40 23 L33 18 L26 27 L18 22" stroke="#FFFFFF" stroke-width="2.5" fill="none" stroke-linecap="round" stroke-linejoin="round"/>
    <path d="M45 11 L49.5 15 L45 19" stroke="#FFFFFF" stroke-width="2.5" fill="none" stroke-linecap="round" stroke-linejoin="round"/>
    <g fill="#FFFFFF" stroke="none">
        <circle cx="18" cy="22" r="2"/>
        <circle cx="26" cy="27" r="2"/>
        <circle cx="33" cy="18" r="2"/>
        <circle cx="40" cy="23" r="2"/>
    </g>
    <g fill="none" stroke="#FFFFFF" stroke-width="1.5" stroke-opacity="0.3">
        <path d="M21 40 V32"/>
        <path d="M26 40 V35"/>
        <path d="M31 40 V30"/>
        <path d="M36 40 V36"/>
        <path d="M41 40 V28"/>
    </g>
  </g>

  <!-- Text "ITIVA" -->
  <text x="75" y="48" font-family="sans-serif" font-size="40" font-weight="bold" fill="#003876">
    I<tspan fill="#005cbf">T</tspan>I<tspan fill="url(#textGradient)">V</tspan><tspan fill="#0094ff">A</tspan>
  </text>
</svg>